<?xml version="1.0" standalone="no"?><!DOCTYPE svg PUBLIC "-//W3C//DTD SVG 1.1//EN" "http://www.w3.org/Graphics/SVG/1.1/DTD/svg11.dtd"><svg t="1569578784944" class="icon" viewBox="0 0 1024 1024" version="1.1" xmlns="http://www.w3.org/2000/svg" p-id="1790" xmlns:xlink="http://www.w3.org/1999/xlink" width="16" height="16"><defs><style type="text/css"></style></defs><path d="M993.621971 209.223994l-460.799987-204.799994a51.199999 51.199999 0 0 0-41.594998 0l-460.799987 204.799994a51.199999 51.199999 0 0 0 0 93.592997l460.799987 204.799994a51.383998 51.383998 0 0 0 41.594998 0l460.799987-204.799994a51.199999 51.199999 0 0 0 0-93.592997z" fill="#8A8A8A" p-id="1791"></path><path d="M512.034985 767.999978a51.199999 51.199999 0 0 1-20.786999-4.403l-460.799987-204.799994a51.209998 51.209998 0 0 1 41.594999-93.593998l439.991987 195.563995 439.991987-195.542995a51.209998 51.209998 0 0 1 41.594999 93.592998l-460.799987 204.799994A51.199999 51.199999 0 0 1 512.034985 767.999978z" fill="#8A8A8A" p-id="1792"></path><path d="M512.034985 1023.99997a51.199999 51.199999 0 0 1-20.786999-4.403l-460.799987-204.799994a51.209998 51.209998 0 0 1 41.594999-93.593997l439.991987 195.563994 439.991987-195.542994a51.209998 51.209998 0 0 1 41.594999 93.592997l-460.799987 204.799994a51.199999 51.199999 0 0 1-20.786999 4.383z" fill="#8A8A8A" p-id="1793"></path></svg>