<?xml version="1.0" standalone="no"?><!DOCTYPE svg PUBLIC "-//W3C//DTD SVG 1.1//EN" "http://www.w3.org/Graphics/SVG/1.1/DTD/svg11.dtd"><svg t="1587537159003" class="icon" viewBox="0 0 1024 1024" version="1.1" xmlns="http://www.w3.org/2000/svg" p-id="3863" xmlns:xlink="http://www.w3.org/1999/xlink" width="200" height="200"><defs><style type="text/css"></style></defs><path d="M512 1024A489.535036 489.535036 0 0 1 294.05632 96.565815a33.529797 33.529797 0 1 1 29.506221 59.683039 422.475442 422.475442 0 1 0 375.533726 0 33.529797 33.529797 0 1 1 29.506222-59.683039A489.535036 489.535036 0 0 1 512 1024z" fill="#409eff" p-id="3864"></path><path d="M512 453.993451a33.529797 33.529797 0 0 1-33.529797-33.529797V33.529797a33.529797 33.529797 0 0 1 33.529797-33.529797 33.529797 33.529797 0 0 1 33.529797 33.529797v386.933857a34.200393 34.200393 0 0 1-33.529797 33.529797z" fill="#409eff" p-id="3865"></path></svg>