<?xml version="1.0" standalone="no"?><!DOCTYPE svg PUBLIC "-//W3C//DTD SVG 1.1//EN" "http://www.w3.org/Graphics/SVG/1.1/DTD/svg11.dtd"><svg t="1581131716665" class="icon" viewBox="0 0 1024 1024" version="1.1" xmlns="http://www.w3.org/2000/svg" p-id="5453" xmlns:xlink="http://www.w3.org/1999/xlink" width="26" height="26"><defs><style type="text/css"></style></defs><path d="M790.237925 743.645925c49.041911 65.548232-81.942717 113.181706-134.74512 18.451222l-71.732423 41.627522 4.39656 7.281584c27.022416 45.503345 69.233584 72.158799 126.287509 79.810839 124.908778 14.940614 206.456573-64.714703 162.192163-177.831754C845.179195 648.300341 762.757679 636.068259 714.703072 604.177474c-28.259604-16.464382-22.37772-51.311836 0.319781-65.293105 17.652642-10.872573 58.219468-12.249556 79.113611 31.079972l68.639454-44.239945C808.627986 428.122867 680.627986 447.78157 642.261188 492.126362 590.089611 553.417829 605.012751 621.826621 650.921502 665.774744c35.707195 34.181679 91.742362 45.78643 139.316423 77.871181z m-324.303945 138.168355c39.544573-15.994321 62.740096-49.057638 68.877105-98.209638 0.532969-4.97671 0.8877-322.575727 0.8877-322.575727h-87.001556l-0.629079 314.153065c-2.03402 20.340205-14.19271 34.919099-31.958935 37.777911-30.312846 4.877106-50.520246-3.949215-71.580396-43.381952l-70.832491 42.826266c30.35828 71.363713 121.875222 97.57357 192.237652 69.408327zM148.310498 69.897611h737.863645C929.615509 69.897611 964.587031 104.869133 964.587031 148.310498v737.863645c0 43.441365-34.971522 78.412887-78.412888 78.412888H148.310498C104.869133 964.587031 69.897611 929.615509 69.897611 886.174143V148.310498C69.897611 104.869133 104.869133 69.897611 148.310498 69.897611z" fill="#E79627" p-id="5454"></path></svg>