<?xml version="1.0" standalone="no"?><!DOCTYPE svg PUBLIC "-//W3C//DTD SVG 1.1//EN" "http://www.w3.org/Graphics/SVG/1.1/DTD/svg11.dtd"><svg t="1587536967516" class="icon" viewBox="0 0 1025 1024" version="1.1" xmlns="http://www.w3.org/2000/svg" p-id="2880" xmlns:xlink="http://www.w3.org/1999/xlink" width="200.1953125" height="200"><defs><style type="text/css"></style></defs><path d="M512.259317 704c-108.8 0-192-83.2-192-192s83.2-192 192-192 192 83.2 192 192S621.059317 704 512.259317 704zM512.259317 384C441.859317 384 384.259317 441.6 384.259317 512s57.6 128 128 128 128-57.6 128-128S582.659317 384 512.259317 384z" p-id="2881" fill="#0283d6"></path><path d="M640.259317 1024 384.259317 1024c-19.2 0-32-12.8-32-32l0-121.6c-25.6-12.8-51.2-25.6-70.4-38.4l-102.4 64c-12.8 6.4-32 6.4-44.8-12.8l-128-224C-6.140683 640 0.259317 620.8 19.459317 614.4l102.4-64c0-12.8 0-25.6 0-38.4s0-25.6 0-38.4l-102.4-64C0.259317 403.2-6.140683 384 6.659317 364.8l128-224C141.059317 128 160.259317 121.6 179.459317 134.4l102.4 64c19.2-12.8 44.8-32 70.4-38.4L352.259317 32C352.259317 12.8 365.059317 0 384.259317 0l256 0c19.2 0 32 12.8 32 32l0 121.6c25.6 12.8 51.2 25.6 70.4 38.4l102.4-64c12.8-6.4 32-6.4 44.8 12.8l128 224C1030.659317 384 1024.259317 403.2 1005.059317 409.6l-102.4 64c0 12.8 0 25.6 0 38.4s0 25.6 0 38.4l102.4 64c12.8 6.4 19.2 25.6 12.8 44.8l-128 224c-6.4 12.8-25.6 19.2-44.8 12.8l-102.4-64c-19.2 12.8-44.8 32-70.4 38.4l0 121.6C672.259317 1011.2 659.459317 1024 640.259317 1024zM416.259317 960l192 0 0-108.8c0-12.8 6.4-25.6 19.2-32 32-12.8 64-32 89.6-51.2 12.8-6.4 25.6-6.4 38.4 0l96 57.6 96-166.4-96-57.6C838.659317 588.8 832.259317 576 838.659317 563.2c0-19.2 6.4-32 6.4-51.2s0-32-6.4-51.2c0-12.8 6.4-25.6 12.8-32l96-57.6-96-166.4-96 57.6c-12.8 6.4-25.6 6.4-38.4 0-25.6-19.2-57.6-38.4-89.6-51.2C614.659317 198.4 608.259317 185.6 608.259317 172.8L608.259317 64l-192 0 0 108.8c0 12.8-6.4 25.6-19.2 32C365.059317 217.6 333.059317 236.8 307.459317 256c-12.8 6.4-25.6 6.4-38.4 0L173.059317 204.8 77.059317 371.2l96 57.6C185.859317 435.2 192.259317 448 185.859317 460.8c0 19.2-6.4 32-6.4 51.2s0 32 6.4 51.2C192.259317 576 185.859317 588.8 173.059317 595.2l-96 57.6 96 166.4 96-57.6c12.8-6.4 25.6-6.4 38.4 0 25.6 19.2 57.6 38.4 89.6 51.2 12.8 6.4 19.2 19.2 19.2 32L416.259317 960z" p-id="2882" fill="#0283d6"></path></svg>