<?xml version="1.0" standalone="no"?><!DOCTYPE svg PUBLIC "-//W3C//DTD SVG 1.1//EN" "http://www.w3.org/Graphics/SVG/1.1/DTD/svg11.dtd"><svg t="1569578777560" class="icon" viewBox="0 0 1024 1024" version="1.1" xmlns="http://www.w3.org/2000/svg" p-id="1664" xmlns:xlink="http://www.w3.org/1999/xlink" width="16" height="16"><defs><style type="text/css"></style></defs><path d="M913.5 676.5H394.3c-25.2 0-45.6-22.2-45.6-49.3 0-27.1 20.3-49.3 45.6-49.3h519.2c25.2 0 45.6 22.2 45.6 49.3-0.1 27.1-20.4 49.3-45.6 49.3z m0-230.1H394.3c-25.2 0-45.6-22.2-45.6-49.3 0-27.1 20.3-49.3 45.6-49.3h519.2c25.2 0 45.6 22.2 45.6 49.3-0.1 27.1-20.4 49.3-45.6 49.3z m-3.3-221.8h-795c-26.9 0-50.5-20.5-51.3-47.7C63.1 149 85 126 112.7 126h795.1c26.9 0 50.5 20.5 51.3 47.7 0.8 27.9-21.2 50.9-48.9 50.9zM63.9 675.7v-327l227 163.5-227 163.5c0 0.8 0 0.8 0 0z m48.8 124.1h795.1c26.9 0 50.5 20.5 51.3 47.7 0.8 27.9-21.2 50.9-48.8 50.9H115.2c-26.9 0-50.5-20.5-51.3-47.7-0.8-27.9 21.1-50.9 48.8-50.9z m0 0" p-id="1665"></path></svg>